<?xml version="1.0" encoding="UTF-8" standalone="no"?><!DOCTYPE svg PUBLIC "-//W3C//DTD SVG 1.1//EN" "http://www.w3.org/Graphics/SVG/1.1/DTD/svg11.dtd"><svg width="100%" height="100%" viewBox="0 0 1250 625" version="1.1" xmlns="http://www.w3.org/2000/svg" xmlns:xlink="http://www.w3.org/1999/xlink" xml:space="preserve" xmlns:serif="http://www.serif.com/" style="fill-rule:evenodd;clip-rule:evenodd;stroke-linejoin:round;stroke-miterlimit:2;"><g><path d="M613.133,59.321l31.734,0l0,48.267l31.2,0c29.689,0 44.533,15.733 44.533,47.2l0,97.066l-31.733,0l0,-92.533c0,-8.711 -1.778,-14.844 -5.334,-18.4c-3.555,-3.555 -9.6,-5.333 -18.133,-5.333l-20.533,0l0,116.266l-31.734,0l0,-192.533Z" style="fill:#ffaf00;fill-rule:nonzero;stroke:#8a8484;stroke-width:4.17px;"/><path d="M761.4,223.854c5.689,0 10.311,-1.066 13.867,-3.2c3.555,-2.133 5.333,-5.066 5.333,-8.8l-1.333,-5.066l-3.2,-5.6l-23.975,-33.884c-6.595,-9.241 -9.892,-18.305 -9.892,-27.191c0,-10.131 3.422,-18.084 10.267,-23.861c6.844,-5.776 16.222,-8.664 28.133,-8.664l23.733,0l6.934,28l-15.734,0c-11.555,0 -17.333,3.644 -17.333,10.933c0,1.422 0.356,3.156 1.067,5.2c0.711,2.045 1.511,3.689 2.4,4.933l25.333,36.8c6.044,8.356 9.067,16.445 9.067,24.267c0,10.667 -3.556,19.022 -10.667,25.067c-7.111,6.044 -16.978,9.066 -29.6,9.066l-29.333,0l-6.4,-28l21.333,0Z" style="fill:#ffaf00;fill-rule:nonzero;stroke:#8a8484;stroke-width:4.17px;"/><path d="M831.267,161.454c0,-22.222 5.289,-37.155 15.866,-44.8c10.578,-7.644 25.2,-11.466 43.867,-11.466c18.133,0 31.022,2.578 38.667,7.733c7.644,5.156 13.111,11.822 16.4,20c3.289,8.178 4.933,17.422 4.933,27.733c0,11.556 -3.778,30.223 -11.333,56c-7.556,25.778 -23.778,38.667 -48.667,38.667c-16,0 -28,-6.133 -36,-18.4c-8,-12.267 -13.956,-24.311 -17.867,-36.133c-3.911,-11.822 -5.866,-23.156 -5.866,-34l0,-5.334Zm32.266,4.971c0,7.267 0.934,14.623 2.8,22.069c1.867,7.446 4.978,15.69 9.334,24.731c4.355,9.042 9.377,13.563 15.066,13.563c4.623,0 9.023,-3.147 13.2,-9.44c4.178,-6.293 7.289,-13.339 9.334,-21.139c2.044,-7.8 3.422,-14.227 4.133,-19.28c0.711,-5.052 1.067,-9.352 1.067,-12.9c0,-10.991 -2.267,-19.102 -6.8,-24.331c-4.534,-5.229 -11.423,-7.844 -20.667,-7.844c-18.311,0 -27.467,10.637 -27.467,31.909l0,2.662Z" style="fill:#ffaf00;fill-rule:nonzero;stroke:#8a8484;stroke-width:4.17px;"/><path d="M961.933,107.588l11.734,0l0,-11.529c0,-11.62 3.098,-20.648 9.293,-27.084c6.196,-6.436 14.959,-9.654 26.29,-9.654l19.917,0l7.433,26.667l-15.192,0c-5.789,0 -9.904,1.035 -12.345,3.104c-2.442,2.069 -3.663,5.715 -3.663,10.937l0,7.559l20.8,0l0,28l-20.8,0l0,116.266l-31.733,0l0,-116.266l-11.734,0l0,-28Z" style="fill:#ffaf00;fill-rule:nonzero;stroke:#8a8484;stroke-width:4.17px;"/><path d="M1025.93,107.588l12.8,0l0,-27.517l31.734,-9.617l0,37.134l23.466,0l0,28l-23.466,0l0,70.4c0,4.8 0.177,7.866 0.533,9.2c0.356,1.333 1.822,3.111 4.4,5.333c2.578,2.222 6.711,3.333 12.4,3.333l11.733,0l-7.929,28l-17.712,0c-11.631,0 -19.825,-2.711 -24.584,-8.133c-4.758,-5.422 -7.71,-10.222 -8.856,-14.4c-1.146,-4.178 -1.719,-10 -1.719,-17.467l0,-76.266l-12.8,0l0,-28Z" style="fill:#ffaf00;fill-rule:nonzero;stroke:#8a8484;stroke-width:4.17px;"/></g><g><path d="M149.133,246.163l0,-186.842l96.8,0l7.734,28.533l-70.934,0l0,53.334l66.934,0l-8.267,29.066l-58.667,0l0,68.488c0,2.842 0.089,5.107 0.267,6.796c0.178,1.689 0.622,4.043 1.333,7.062l-30.4,18.388c-2.133,-4.984 -3.466,-8.854 -4,-11.613c-0.533,-2.758 -0.8,-7.162 -0.8,-13.212Z" style="fill:#ffbf00;fill-rule:nonzero;stroke:#8a8484;stroke-width:4.17px;"/><rect x="265.133" y="59.321" width="31.733" height="192.533" style="fill:#ffbf00;fill-rule:nonzero;stroke:#8a8484;stroke-width:4.17px;"/><path d="M408.067,251.854c-14.934,0 -27.334,-1.777 -37.2,-5.333c-9.867,-3.555 -21.067,-11.644 -33.6,-24.267c-12.534,-12.622 -18.8,-32 -18.8,-58.133c0,-19.022 4.933,-33.2 14.8,-42.533c9.866,-9.334 25.022,-14 45.466,-14l53.334,0l0,144.266l-24,0Zm-7.734,-27.466l0,-88.8l-20.375,0c-19.839,0 -29.758,10.311 -29.758,30.933c0,14.222 3.53,25.822 10.59,34.8c7.059,8.978 12.957,14.711 17.693,17.2c4.736,2.489 12.02,4.445 21.85,5.867Z" style="fill:#ffbf00;fill-rule:nonzero;stroke:#8a8484;stroke-width:4.17px;"/></g><path id="path826" d="M454.417,413.452c-1.865,-3.018 20.443,-68.7 37.226,-109.603c2.666,-6.499 0.369,-6.932 -24.444,-4.615c-23.876,2.229 -27.753,1.601 -30.248,-4.901c-1.574,-4.102 -0.884,-12.698 1.533,-19.103c7.759,-20.554 111.165,-187.255 115.301,-185.876c13.382,4.461 12.519,15.897 -5.266,69.786c-9.907,30.016 -17.281,55.306 -16.388,56.199c0.893,0.893 14.3,-0.478 29.794,-3.044c24.498,-4.06 29.049,-3.788 34.92,2.083c5.283,5.283 5.796,8.824 2.359,16.281c-4.309,9.347 -96.636,146.451 -116.547,173.07c-9.744,13.027 -23.311,17.698 -28.24,9.723l0,0Z" style="fill:#ff6000;fill-rule:nonzero;stroke:#a35c5c;stroke-width:4.17px;"/><g><path d="M609.358,300.925l55.089,0c13.149,0 23.124,0.34 29.925,1.02c16.322,0 29.188,4.817 38.596,14.452c9.408,9.635 14.112,22.274 14.112,37.916c0,10.202 -2.267,20.177 -6.801,29.925c-4.534,9.749 -9.521,16.72 -14.962,20.914c-5.441,4.194 -9.975,7.198 -13.602,9.011c-3.628,1.814 -7.935,3.627 -12.923,5.441c24.938,8.615 37.407,24.711 37.407,48.288c0,12.015 -3.288,24.087 -9.862,36.216c-6.574,12.128 -15.869,22.16 -27.885,30.095c-12.015,7.934 -31.058,11.902 -57.129,11.902l-70.731,0l38.766,-245.18Zm40.807,99.296l5.78,0.34c11.336,0 20.46,-3.004 27.375,-9.011c6.914,-6.008 10.372,-14.113 10.372,-24.314c0,-14.963 -9.975,-22.444 -29.925,-22.444l-4.761,0l-8.841,55.429Zm-16.323,102.357l6.461,0.68c7.935,0 13.772,-0.567 17.513,-1.701c3.74,-1.133 7.651,-3.287 11.732,-6.461c7.708,-7.027 11.562,-16.889 11.562,-29.584c0,-13.149 -3.684,-20.574 -11.052,-22.274c-7.368,-1.7 -15.133,-2.55 -23.294,-2.55l-3.401,0l-9.521,61.89Z" style="fill:#ffc748;fill-rule:nonzero;stroke:#8a8484;stroke-width:4.17px;"/><path d="M784.826,283.922l48.968,0l-41.486,262.183l-48.968,0l41.486,-262.183Z" style="fill:#ffc748;fill-rule:nonzero;stroke:#8a8484;stroke-width:4.17px;"/><path d="M824.273,487.057c0,-34.168 8.218,-61.717 24.654,-82.646c16.436,-20.93 38.143,-31.395 65.121,-31.395c19.269,0 34.118,5.657 44.547,16.971c10.428,11.314 15.642,27.492 15.642,48.533c0,33.261 -8.274,60.301 -24.824,81.119c-16.549,20.818 -37.973,31.226 -64.27,31.226c-17.683,0 -31.795,-4.751 -42.337,-14.255c-10.542,-9.504 -16.606,-23.08 -18.193,-40.727l-0.34,-8.826Zm51.688,-7.157l0,3.39c0,18.299 5.214,27.449 15.643,27.449c11.788,0 19.44,-6.439 22.954,-19.317c3.514,-12.878 5.837,-23.552 6.971,-32.023c1.133,-8.472 1.7,-15.306 1.7,-20.502c0,-17.849 -5.214,-26.774 -15.643,-26.774c-8.614,0 -16.039,6.382 -22.273,19.147c-6.235,12.764 -9.352,28.974 -9.352,48.63Z" style="fill:#ffc748;fill-rule:nonzero;stroke:#8a8484;stroke-width:4.17px;"/><path d="M1023.21,556.986l-0.34,2.041c0,5.667 1.701,10.201 5.101,13.602c3.401,3.401 7.821,5.101 13.262,5.101c7.481,0 13.149,-2.292 17.003,-6.876c3.854,-4.583 6.688,-12.49 8.501,-23.719l3.741,-24.154c-9.522,15.416 -23.35,23.124 -41.487,23.124c-13.602,0 -24.144,-4.865 -31.625,-14.593c-7.481,-9.729 -11.222,-23.757 -11.222,-42.085c0,-33.031 6.688,-60.294 20.064,-81.789c13.375,-21.494 30.378,-32.241 51.008,-32.241c18.816,0 29.925,8.161 33.325,24.484l3.401,-20.403l46.587,0l-25.057,159.486c-3.837,24.257 -12.302,42.053 -25.396,53.388c-13.094,11.335 -31.604,17.003 -55.532,17.003c-17.386,0 -30.819,-3.854 -40.3,-11.562c-9.48,-7.708 -14.221,-18.59 -14.221,-32.645l0,-8.162l43.187,0Zm12.922,-78.786l0,6.78c0,15.812 5.441,23.719 16.323,23.719c11.789,0 19.837,-8.642 24.144,-25.924c4.307,-17.283 6.461,-32.362 6.461,-45.238c0,-16.943 -5.48,-25.414 -16.44,-25.414c-8.451,0 -15.646,5.93 -21.582,17.789c-5.937,11.859 -8.906,27.955 -8.906,48.288Z" style="fill:#ffc748;fill-rule:nonzero;stroke:#8a8484;stroke-width:4.17px;"/></g></svg>